HIERARCHY
ROOT Hips
{
	OFFSET 0.00000 0.00000 0.00000
	CHANNELS 6 Xposition Yposition Zposition Zrotation Yrotation Xrotation 
	JOINT RightUpLegDummy
	{
		OFFSET 0 0 0
		CHANNELS 3 Zrotation Yrotation Xrotation
		JOINT RightUpLeg
		{
			OFFSET -3.52197 -3.41223 0.04002
			CHANNELS 3 Zrotation Yrotation Xrotation
			JOINT RightLeg
			{
				OFFSET 0.00006 -17.42390 1.60435
				CHANNELS 3 Zrotation Yrotation Xrotation
				JOINT RightFoot
				{
					OFFSET 0.06153 -16.50078 -1.63901
					CHANNELS 3 Zrotation Yrotation Xrotation
					JOINT RightToes
					{
						OFFSET 0.00298 -1.73825 3.34613
						CHANNELS 3 Zrotation Yrotation Xrotation
						End Site
						{
							OFFSET 0.00480 -0.05416 3.85043
						}
					}
				}
			}
		}
	}
	JOINT SpineDummy
	{
		OFFSET 0 0 0
		CHANNELS 3 Zrotation Yrotation Xrotation
		JOINT Spine
		{
			OFFSET 0.00000 4.68130 0.00000
			CHANNELS 3 Zrotation Yrotation Xrotation
			JOINT Spine1
			{
				OFFSET -0.00000 10.10138 0.05002
				CHANNELS 3 Zrotation Yrotation Xrotation
				JOINT HEadDummy
				{
					OFFSET 0 0 0
					CHANNELS 3 Zrotation Yrotation Xrotation
					JOINT Head
					{
						OFFSET -0.00000 3.43865 0.00438
						CHANNELS 3 Zrotation Yrotation Xrotation
						End Site
						{
							OFFSET -0.11417 5.02924 0.98962
						}
					}
				}
				JOINT LeftShoulder1Dummy
				{
					OFFSET 0 0 0
					CHANNELS 3 Zrotation Yrotation Xrotation
					JOINT LeftShoulder1
					{
						OFFSET 3.53937 -0.14262 -0.08662
						CHANNELS 3 Zrotation Yrotation Xrotation
						JOINT LeftArm
						{
							OFFSET 4.04833 -0.00133 0.12681
							CHANNELS 3 Zrotation Yrotation Xrotation
							JOINT LeftForeArm
							{
								OFFSET 10.33880 -0.01036 -0.55515
								CHANNELS 3 Zrotation Yrotation Xrotation
								JOINT LeftHand
								{
									OFFSET 8.69677 0.07543 0.40060
									CHANNELS 3 Zrotation Yrotation Xrotation
									End Site
									{
										OFFSET 5.28377 -0.21905 0.59205
									}
								}
							}
						}
					}
				}
				JOINT RightShoulderDummy
				{
					OFFSET 0 0 0
					CHANNELS 3 Zrotation Yrotation Xrotation
					JOINT RightShoulder
					{
						OFFSET -3.53937 -0.14262 -0.08660
						CHANNELS 3 Zrotation Yrotation Xrotation
						JOINT RightArm
						{
							OFFSET -4.04833 -0.00133 0.12683
							CHANNELS 3 Zrotation Yrotation Xrotation
							JOINT RightForeArm
							{
								OFFSET -10.37987 -0.01039 -0.55511
								CHANNELS 3 Zrotation Yrotation Xrotation
								JOINT RightHand
								{
									OFFSET -8.67398 0.07538 0.40058
									CHANNELS 3 Zrotation Yrotation Xrotation
									End Site
									{
										OFFSET -5.24810 -0.21916 0.59204
									}
								}
							}
						}
					}
				}
			}
		}
	}
	JOINT LeftUpLegDummy
	{
		OFFSET 0 0 0
		CHANNELS 3 Zrotation Yrotation Xrotation
		JOINT LeftUpLeg
		{
			OFFSET 3.52197 -3.41223 0.04002
			CHANNELS 3 Zrotation Yrotation Xrotation
			JOINT LeftLeg
			{
				OFFSET -0.00012 -17.42399 1.60337
				CHANNELS 3 Zrotation Yrotation Xrotation
				JOINT LeftFoot
				{
					OFFSET -0.09972 -16.50070 -1.63802
					CHANNELS 3 Zrotation Yrotation Xrotation
					JOINT LeftToes
					{
						OFFSET -0.01575 -1.73823 3.34611
						CHANNELS 3 Zrotation Yrotation Xrotation
						End Site
						{
							OFFSET 0.03150 -0.01868 3.85031
						}
					}
				}
			}
		}
	}
}
MOTION
Frames: 16
Frame Time: 0.033333
12.3866 38.7105 -6.2450 -8.3555 -59.0422 1.5941 0.0000 0.0000 0.0000 -2.5160 -17.1345 2.2357 -2.5525 -1.7949 46.4346 20.1468 -2.2115 1.0823 0.0000 -0.0000 0.0000 0.0000 0.0000 0.0000 0.1318 1.7708 4.0140 -0.0684 1.8062 2.4346 -0.0000 0.0000 -0.0000 -1.2418 1.1086 33.4427 -0.0000 0.0000 -0.0000 -34.8703 -2.7557 2.5609 -42.6398 -13.6369 -15.9515 -11.7335 5.1746 45.8701 12.8853 -4.4378 -1.0559 -0.0000 0.0000 -0.0000 35.1294 5.2344 3.5962 41.0964 3.0854 -18.5118 9.9981 1.9438 21.5395 -9.5174 2.1835 -0.6024 0.0000 0.0000 0.0000 -4.0225 2.0557 -9.7562 16.7677 36.3685 25.7730 6.3356 -0.1210 -8.2566 0.0000 0.0000 -0.0000
11.7920 38.8314 -6.0437 -8.3907 -56.7257 1.6564 0.0000 0.0000 0.0000 -2.0591 -14.9067 1.1446 -6.5738 -5.3417 44.3869 16.6020 -1.4553 -1.4104 0.0000 -0.0000 0.0000 0.0000 0.0000 0.0000 -0.1106 1.5339 3.9216 0.1519 1.5326 2.6494 -0.0000 0.0000 -0.0000 -0.9917 0.8797 33.5413 -0.0000 0.0000 -0.0000 -34.8803 -2.7531 2.5604 -42.7854 -14.8081 -15.4779 -11.8891 5.2166 44.2329 13.1061 -4.4235 -1.0733 -0.0000 0.0000 -0.0000 35.0120 5.2177 3.5789 41.1217 3.1801 -19.0438 9.8182 1.3218 21.5798 -9.5680 2.1352 -0.6021 0.0000 0.0000 0.0000 -3.9076 1.6769 -8.5633 15.8233 34.8229 24.5331 6.0402 -0.0949 -8.5654 0.0000 0.0000 -0.0000
11.2310 38.9664 -5.8580 -8.4541 -54.2168 1.7891 0.0000 0.0000 0.0000 -1.6689 -12.7213 0.2298 -9.9452 -9.3143 40.9506 13.4560 -0.9511 -3.4047 0.0000 -0.0000 0.0000 0.0000 0.0000 0.0000 -0.3983 1.2811 3.8790 0.5376 1.2080 2.7703 -0.0000 0.0000 -0.0000 -0.9837 0.6451 33.7211 -0.0000 0.0000 -0.0000 -34.8122 -2.7759 2.5654 -43.1370 -15.9141 -15.0848 -11.9506 5.2557 42.6872 12.9259 -4.3829 -1.0537 -0.0000 0.0000 -0.0000 34.8767 5.2028 3.5608 41.0453 3.0753 -19.1570 9.7975 1.3219 21.3307 -9.5600 2.1756 -0.6046 0.0000 0.0000 0.0000 -3.6526 1.4101 -7.3612 14.5056 33.0383 22.9259 5.8791 -0.0778 -8.7953 0.0000 0.0000 -0.0000
10.7134 39.1083 -5.6978 -8.3743 -51.6136 1.7857 0.0000 0.0000 0.0000 -1.4459 -10.5254 -0.5494 -11.6294 -12.9080 36.4376 10.8927 -0.5895 -5.3567 0.0000 -0.0000 0.0000 0.0000 0.0000 0.0000 -0.8462 1.0405 4.0280 1.0909 0.8614 2.7324 -0.0000 0.0000 -0.0000 -1.1360 0.4796 33.8859 -0.0000 0.0000 -0.0000 -34.7772 -2.8164 2.5797 -43.4653 -16.8695 -14.5163 -12.1050 5.3051 41.1201 12.6408 -4.4164 -1.0328 -0.0000 0.0000 -0.0000 34.7410 5.1934 3.5450 40.8574 2.9684 -18.9786 9.8773 1.5978 21.1358 -9.7008 2.2344 -0.6183 0.0000 0.0000 0.0000 -3.2943 1.3495 -6.1479 12.7506 30.9168 21.0752 6.0483 -0.0729 -8.9422 0.0000 0.0000 -0.0000
10.2434 39.2386 -5.5541 -8.2993 -49.0246 1.6795 0.0000 0.0000 0.0000 -1.3863 -8.1820 -1.1109 -11.4707 -15.5230 30.9789 9.5330 -0.4288 -6.4738 0.0000 -0.0000 0.0000 0.0000 0.0000 0.0000 -1.1834 0.8292 4.3498 1.5422 0.5551 2.7297 -0.0000 0.0000 -0.0000 -1.0956 0.3029 33.7900 -0.0000 0.0000 -0.0000 -34.7526 -2.8452 2.5898 -43.6593 -17.7526 -13.6840 -12.4060 5.2423 39.5163 12.6536 -4.6090 -1.0536 -0.0000 0.0000 -0.0000 34.6874 5.1945 3.5407 40.5930 3.0309 -18.8743 9.9082 1.9038 21.0421 -9.9991 2.2357 -0.6381 0.0000 0.0000 0.0000 -2.8424 1.4360 -4.9635 11.0241 28.6887 19.3812 6.3680 -0.0739 -9.0348 0.0000 0.0000 -0.0000
9.8119 39.3485 -5.4138 -8.3274 -46.5652 1.5470 0.0000 0.0000 0.0000 -1.4996 -6.0234 -1.4848 -9.7067 -16.3609 25.0378 9.2189 -0.4218 -6.4093 0.0000 -0.0000 0.0000 0.0000 0.0000 0.0000 -1.2196 0.6648 4.6800 1.6964 0.3457 2.9526 -0.0000 0.0000 -0.0000 -0.7752 0.0296 33.4703 -0.0000 0.0000 -0.0000 -34.5792 -2.8302 2.5725 -43.8644 -18.5957 -12.7488 -12.7041 4.5648 38.3552 12.9808 -4.9049 -1.1130 -0.0000 0.0000 -0.0000 34.8002 5.2134 3.5583 40.2313 3.3006 -18.9281 9.8776 2.1582 20.8246 -10.2154 2.2251 -0.6515 0.0000 0.0000 0.0000 -2.2998 1.5998 -3.8234 9.5533 26.5164 17.9809 6.5801 -0.0712 -9.1460 0.0000 0.0000 -0.0000
9.4073 39.4469 -5.2766 -8.3379 -44.3159 1.4061 0.0000 0.0000 0.0000 -1.8074 -4.7427 -1.9282 -7.1099 -15.0427 19.3546 9.3432 -0.4654 -5.9220 0.0000 -0.0000 0.0000 0.0000 0.0000 0.0000 -1.1172 0.5769 4.9002 1.6757 0.2496 3.2790 -0.0000 0.0000 -0.0000 -0.4427 -0.3443 33.3162 -0.0000 0.0000 -0.0000 -34.1972 -2.7539 2.5174 -44.2093 -19.2984 -11.9618 -12.8687 3.4877 37.9507 13.3077 -5.1317 -1.1666 -0.0000 0.0000 -0.0000 34.9877 5.2384 3.5852 39.8146 3.6994 -18.9350 9.8795 2.3322 20.4855 -10.2146 2.2484 -0.6534 0.0000 0.0000 0.0000 -1.7300 1.8107 -2.7863 8.2284 24.3714 16.7673 6.7372 -0.0684 -9.2351 0.0000 0.0000 -0.0000
9.0228 39.5343 -5.1531 -8.2529 -42.2811 1.2787 0.0000 0.0000 0.0000 -2.2089 -4.4217 -2.6214 -4.6665 -12.3456 14.4503 9.5749 -0.5320 -5.2298 0.0000 -0.0000 0.0000 0.0000 0.0000 0.0000 -1.0712 0.5901 5.0496 1.6992 0.2535 3.4368 -0.0000 0.0000 -0.0000 -0.2690 -0.8149 33.5076 -0.0000 0.0000 -0.0000 -33.7742 -2.6364 2.4439 -44.5435 -19.7427 -11.4984 -12.9262 2.8113 37.9273 13.4504 -5.2100 -1.1882 -0.0000 0.0000 -0.0000 35.0695 5.2449 3.5952 39.4979 4.0990 -18.7885 9.9437 2.4832 20.1901 -10.1854 2.1927 -0.6470 0.0000 0.0000 0.0000 -1.1853 2.0541 -1.9866 7.0532 22.2607 15.8300 6.9194 -0.0678 -9.2949 0.0000 0.0000 -0.0000
8.6486 39.6002 -5.0486 -8.1486 -40.4151 1.1748 0.0000 0.0000 0.0000 -2.5618 -4.2104 -3.4585 -2.8990 -9.5106 10.4189 9.7839 -0.6551 -3.8670 0.0000 -0.0000 0.0000 0.0000 0.0000 0.0000 -1.0641 0.6823 5.2049 1.7951 0.3275 3.3974 -0.0000 0.0000 -0.0000 -0.1280 -1.3658 33.7202 -0.0000 0.0000 -0.0000 -33.5194 -2.5327 2.3871 -44.5704 -19.9073 -11.4270 -12.9374 2.5784 37.8584 13.5144 -5.1935 -1.1924 -0.0000 0.0000 -0.0000 35.0358 5.2342 3.5878 39.3682 4.4341 -18.5664 10.0270 2.7556 19.8425 -10.4033 1.9307 -0.6397 0.0000 0.0000 0.0000 -0.6300 2.3310 -1.4349 6.1052 20.2455 15.3081 6.9932 -0.0579 -9.4625 0.0000 0.0000 -0.0000
8.2728 39.6463 -4.9560 -8.0462 -38.6690 1.0299 0.0000 0.0000 0.0000 -2.8782 -3.6058 -4.2760 -1.7716 -6.8032 7.2303 9.9259 -0.8285 -1.9031 0.0000 -0.0000 0.0000 0.0000 0.0000 0.0000 -1.0384 0.7893 5.3676 1.8477 0.4265 3.3461 -0.0000 0.0000 -0.0000 0.0963 -1.9171 33.6140 -0.0000 0.0000 -0.0000 -33.4663 -2.4887 2.3666 -44.1513 -19.8630 -11.7591 -12.8872 2.8620 37.7908 13.6545 -5.1089 -1.1959 -0.0000 0.0000 -0.0000 35.0357 5.2341 3.5877 39.3527 4.7361 -18.3245 10.1057 3.1992 19.3122 -10.8427 1.5681 -0.6366 0.0000 0.0000 0.0000 -0.0542 2.6212 -0.9288 5.2993 18.3207 14.9946 6.9036 -0.0367 -9.7590 0.0000 0.0000 -0.0000
7.8889 39.6844 -4.8654 -7.8505 -36.9689 0.7906 0.0000 0.0000 0.0000 -3.2130 -3.1663 -5.0359 -1.1129 -3.8704 4.8487 10.0974 -1.0216 0.1901 0.0000 -0.0000 0.0000 0.0000 0.0000 0.0000 -1.0483 0.8574 5.4941 1.8198 0.5029 3.3375 -0.0000 0.0000 -0.0000 0.2996 -2.3995 33.2961 -0.0000 0.0000 -0.0000 -33.4884 -2.5026 2.3734 -43.4047 -19.7194 -12.4884 -12.7201 3.8442 38.1180 13.9014 -4.9071 -1.1958 -0.0000 0.0000 -0.0000 35.1238 5.2530 3.6033 39.3803 5.0200 -18.0679 10.1729 3.6823 18.9247 -11.1520 1.3694 -0.6377 0.0000 0.0000 0.0000 0.4491 2.8477 -0.3487 4.5533 16.4510 14.6253 6.8058 -0.0183 -10.0192 0.0000 0.0000 -0.0000
7.4934 39.7130 -4.7720 -7.5417 -35.1906 0.5230 0.0000 0.0000 0.0000 -3.5781 -3.0953 -5.7220 -0.7862 -1.3373 3.1381 10.3974 -1.2380 2.2945 0.0000 -0.0000 0.0000 0.0000 0.0000 0.0000 -1.1464 0.8704 5.5437 1.7923 0.5230 3.2747 -0.0000 0.0000 -0.0000 0.3819 -2.8507 33.0366 -0.0000 0.0000 -0.0000 -33.4445 -2.5243 2.3793 -42.5672 -19.5834 -13.5916 -12.4035 5.1684 39.0103 14.2256 -4.5703 -1.1861 -0.0000 0.0000 -0.0000 35.2079 5.2676 3.6168 39.4751 5.2329 -17.8448 10.2042 4.0697 19.0946 -11.0359 1.4662 -0.6392 0.0000 0.0000 0.0000 0.8375 2.9571 0.1573 3.9268 14.5994 14.3041 6.7609 -0.0058 -10.2029 0.0000 0.0000 -0.0000
7.0812 39.7196 -4.6749 -7.2046 -33.2345 0.3109 0.0000 0.0000 0.0000 -3.9222 -3.1074 -6.3027 -0.7096 0.2715 2.0500 10.8014 -1.4685 4.2663 0.0000 -0.0000 0.0000 0.0000 0.0000 0.0000 -1.3024 0.8351 5.4907 1.8299 0.4798 3.1801 -0.0000 0.0000 -0.0000 0.4344 -3.3486 32.8231 -0.0000 0.0000 -0.0000 -33.2842 -2.5017 2.3607 -41.7926 -19.5161 -14.9953 -11.8977 5.3359 40.4352 14.5755 -4.1641 -1.1683 -0.0000 0.0000 -0.0000 35.2287 5.2641 3.6173 39.6524 5.3554 -17.6794 10.2016 4.3871 19.6213 -10.5723 1.7975 -0.6393 0.0000 0.0000 0.0000 1.2041 3.0003 0.4323 3.4241 12.6626 14.2743 6.6344 0.0130 -10.4787 0.0000 0.0000 -0.0000
6.6509 39.7025 -4.5740 -6.8434 -31.1138 0.0949 0.0000 0.0000 0.0000 -4.2522 -3.0559 -6.7245 -0.7151 1.6526 1.6506 11.2990 -1.6742 5.6767 0.0000 -0.0000 0.0000 0.0000 0.0000 0.0000 -1.4914 0.7822 5.3693 1.9238 0.4058 3.1768 -0.0000 0.0000 -0.0000 0.5343 -3.9004 32.4788 -0.0000 0.0000 -0.0000 -33.1092 -2.4480 2.3291 -41.0337 -19.4914 -16.5519 -11.2457 5.2847 41.8908 14.8276 -3.7770 -1.1427 -0.0000 0.0000 -0.0000 35.2091 5.2536 3.6112 39.8745 5.4317 -17.5195 10.2076 4.6998 19.9668 -10.0818 2.2441 -0.6442 0.0000 0.0000 0.0000 1.6060 3.0544 0.5723 2.9058 10.5478 14.4948 6.3730 0.0422 -10.9208 0.0000 0.0000 -0.0000
6.2056 39.6702 -4.4673 -6.3711 -28.9099 -0.2413 0.0000 0.0000 0.0000 -4.6334 -2.9920 -6.8815 -0.5840 3.8045 1.8314 11.9758 -1.8704 6.5812 0.0000 -0.0000 0.0000 0.0000 0.0000 0.0000 -1.7169 0.7651 5.2622 2.0413 0.3638 3.2411 -0.0000 0.0000 -0.0000 0.5499 -4.4519 32.0127 -0.0000 0.0000 -0.0000 -33.1113 -2.4447 2.3280 -40.1314 -19.4029 -18.0796 -10.5459 5.2561 43.3645 14.8645 -3.4667 -1.1081 -0.0000 0.0000 -0.0000 35.1514 5.2438 3.6020 40.1280 5.4663 -17.3732 10.2321 4.9161 20.0470 -9.8069 2.6746 -0.6592 0.0000 0.0000 0.0000 1.9742 3.1218 0.7577 2.2897 8.3052 14.7769 6.0979 0.0730 -11.4209 0.0000 0.0000 -0.0000
5.7450 39.6256 -4.3495 -5.7820 -26.6654 -0.6771 0.0000 0.0000 0.0000 -5.0503 -2.8477 -6.7172 -0.2912 6.5198 2.3927 12.6887 -2.0677 7.3459 0.0000 -0.0000 0.0000 0.0000 0.0000 0.0000 -1.9268 0.8128 5.1823 2.1317 0.3968 3.2475 -0.0000 0.0000 -0.0000 0.3568 -4.9616 31.5787 -0.0000 0.0000 -0.0000 -33.3229 -2.5229 2.3714 -39.1035 -19.1295 -19.4208 -9.9154 5.2258 44.8031 14.7692 -3.2349 -1.0728 -0.0000 0.0000 -0.0000 35.0437 5.2300 3.5867 40.4149 5.4113 -17.3350 10.2378 4.8658 20.1760 -9.7734 2.9170 -0.6753 0.0000 0.0000 0.0000 2.2777 3.1823 0.9880 1.6060 6.0296 15.1045 5.8963 0.1015 -11.9203 0.0000 0.0000 -0.0000
